<svg version="1.2" xmlns="http://www.w3.org/2000/svg" viewBox="0 0 7 12" width="7" height="12"><style>.a{fill:#444}</style><path fill-rule="evenodd" class="a" d="m3.9 0q0 0.5 0 1c1.5 0.3 2.7 1 2.8 2.8q-0.9 0-1.8 0c-0.1-0.7-0.4-1.2-1-1.2-0.1 0.7 0 1.5 0 2.3 1.7 0.4 3.3 1.1 3.1 3.4-0.2 1.6-1.6 2.4-3.1 2.6q0 0.5 0 1.1-0.4 0-0.8 0 0-0.5 0-1.1c-1.9-0.2-3-1.2-3.1-3.3q0.9 0 1.8 0c0 1.1 0.5 1.5 1.3 1.7 0.1-0.8 0-1.8 0-2.7-0.8-0.3-1.8-0.5-2.3-1.1-0.5-0.5-0.7-1.2-0.6-1.9 0.1-1.7 1.4-2.4 2.9-2.6 0.1-0.3 0-0.7 0.1-1q0.3 0 0.7 0zm-1.9 4c0.2 0.5 0.7 0.6 1.1 0.7q0-1.1 0-2.1c-0.8-0.1-1.4 0.7-1.1 1.4zm1.9 5.3c1 0 1.7-1.1 1.1-1.9-0.2-0.3-0.7-0.5-1.1-0.6q0 1.3 0 2.5z"/></svg>