<svg version="1.2" xmlns="http://www.w3.org/2000/svg" viewBox="0 0 27 24" width="27" height="24"><style>.a{fill:#444}</style><path fill-rule="evenodd" class="a" d="m7.4 0q0.3 0 0.5 0c2.6 0.2 4.3 1.3 5.6 2.8 1.3-1.5 3-2.6 5.6-2.8q0.3 0 0.5 0 0 0 0.1 0c3.4 0.3 5.5 2.1 6.7 4.6 1.3 2.8 0.4 6.6-1 8.9-2.7 4.7-7.8 7.3-11.9 10.5-4.1-3.3-9.3-5.8-12-10.5-1.3-2.4-2.2-6.2-0.9-9 1.2-2.5 3.5-4.2 6.8-4.5zm-0.3 1.4c-1.6 0.1-3 0.9-4 1.8-0.9 0.9-1.7 2.3-1.8 3.9-0.1 2.2 0.5 4.1 1.4 5.5 2.4 4.3 7 6.8 10.8 9.7 2.5-2 5.4-3.5 7.8-5.9 2.2-2.2 4.7-5.1 4.4-9.4-0.1-0.9-0.4-1.7-0.7-2.3-1-1.9-3.1-3.4-5.9-3.3-2.9 0.1-4.4 1.7-5.6 3.6-1.3-2-3-3.9-6.4-3.6z"/></svg>