<svg version="1.2" xmlns="http://www.w3.org/2000/svg" viewBox="0 0 26 28" width="26" height="28"><style>.a{fill:#444}</style><path fill-rule="evenodd" class="a" d="m26 28q-13 0-26 0c0.8-7 1.6-14.1 2.5-21.1q2.3 0 4.6 0c-0.3-3.7 1.8-6.1 4.5-6.7 4.2-1 7.8 2.3 7.3 6.7q2.3 0 4.6 0c0.8 7.1 1.7 14.1 2.5 21.1zm-13.2-26.8c-2.8 0.1-4.8 2.4-4.4 5.7q4.6 0 9.2 0c0.3-3.5-1.7-5.8-4.8-5.7zm-9.2 7c-0.8 6.3-1.5 12.4-2.2 18.6q11.6 0 23.2 0c-0.7-6.2-1.5-12.4-2.2-18.7q-1.7 0-3.5 0 0 0.6 0 1.1c0.4 0.5 0.6 0.7 0.6 1.3-0.1 1.3-2.5 1.4-2.4-0.2 0-0.6 0.4-0.6 0.5-1.1 0.1-0.3 0-0.6 0-1.1q-4.6 0-9.2 0c-0.4 1.4 0.6 1.3 0.5 2.2 0 1.6-2.4 1.6-2.4 0 0-0.6 0.5-0.7 0.6-1.1 0.1-0.3-0.1-0.6 0-1.1q-1.7 0-3.5 0c-0.1 0-0.1 0.1 0 0.1z"/></svg>