<svg version="1.2" xmlns="http://www.w3.org/2000/svg" viewBox="0 0 18 12" width="18" height="12"><style>.a{fill:#444}</style><path fill-rule="evenodd" class="a" d="m11.8 0q0 1.1 0 2.2 2.4 0 4.9 0c0.3 0.8 0.6 1.8 0.9 2.8 0.1 0.3 0.3 0.6 0.4 0.9 0.1 0.7 0 1.5 0 2.2q0 1.1 0 2.3-0.9 0-1.8 0c-0.3 0.7-0.8 1.3-1.6 1.5-1.3 0.4-2.5-0.5-2.7-1.5q-2.3 0-4.7 0c-0.2 0.5-0.5 1-0.9 1.2-1.3 0.9-3.1 0.1-3.4-1.2q-0.9 0-1.8 0 0-1.9 0-3.8 0.6 0 1.2 0 0 1.3 0 2.7c0.1 0 0.4 0 0.6 0 0.1-0.2 0.1-0.5 0.3-0.7 0.9-1.5 3.6-1.1 4 0.7q1.7 0 3.4 0c0.1-2.7 0.1-5.5 0.1-8.2q-5.4 0-10.7 0 0-0.6 0-1.1 5.9 0 11.8 0zm0 3.3c0 2-0.1 4.1 0 6 0.2-0.2 0.2-0.4 0.3-0.6 0.3-0.4 0.6-0.7 1-0.8 1.3-0.7 2.8 0.2 3.1 1.4q0.3 0 0.6 0c-0.1-1.2 0.2-2.2 0-3.3 0-0.4-0.3-0.9-0.4-1.4q-0.3-0.7-0.5-1.3-2.1 0-4.1 0 0 0 0 0zm-7.8 6.9c0.5 1.3 2.6 0.6 2.1-0.8-0.2-0.5-0.7-0.7-1.2-0.7-0.7 0.1-1.2 0.8-0.9 1.5zm9 0c0.4 1.1 2.2 0.8 2.2-0.4 0-0.7-0.6-1.2-1.3-1.1-0.7 0.1-1.2 0.8-0.9 1.5zm-12.4-8q2.5 0 5 0 0 0.5 0 1.1-2.5 0-5 0c0-0.4-0.1-0.8 0-1.1zm3.9 2.2q0 0.5 0 1-1.7 0-3.4 0c0.1-0.3 0-0.7 0.1-1q1.6 0 3.3 0z"/></svg>