<svg version="1.2" xmlns="http://www.w3.org/2000/svg" viewBox="0 0 12 13" width="12" height="13"><style>.a{fill:#444}</style><path fill-rule="evenodd" class="a" d="m12 12.9q0 0.1 0 0.1-0.6 0-1.2 0c0-1.4-0.6-2.5-1.3-3.3-0.7-0.7-1.9-1.3-3.2-1.4-1.4-0.1-2.6 0.4-3.4 1.1-1 0.8-1.6 1.9-1.7 3.6q-0.6 0-1.2 0 0 0 0-0.1c0.2-2.8 1.6-4.4 3.6-5.3-1.4-0.9-2.4-3.2-1.4-5.3 0.6-1.2 2-2.3 3.8-2.3 1.9 0 3.2 1.1 3.8 2.4 0.3 0.7 0.5 1.6 0.3 2.5-0.2 1.2-0.9 2.1-1.7 2.7 2 0.9 3.4 2.5 3.6 5.3zm-9-9.3c-0.2 1.4 0.6 2.5 1.2 2.9 1 0.7 2.3 0.8 3.4 0.1 0.9-0.5 1.5-1.5 1.4-2.8-0.1-0.7-0.5-1.3-0.8-1.7-0.6-0.6-1.4-1-2.6-0.9-1.3 0.2-2.3 1.1-2.6 2.4z"/></svg>